<svg width="200" height="60" viewBox="0 0 200 60" fill="none" xmlns="http://www.w3.org/2000/svg">
  <defs>
    <linearGradient id="logoGradient" x1="0%" y1="0%" x2="100%" y2="0%">
      <stop offset="0%" style="stop-color:#1e40af;stop-opacity:1" />
      <stop offset="25%" style="stop-color:#3b82f6;stop-opacity:1" />
      <stop offset="50%" style="stop-color:#06b6d4;stop-opacity:1" />
      <stop offset="75%" style="stop-color:#3b82f6;stop-opacity:1" />
      <stop offset="100%" style="stop-color:#1e40af;stop-opacity:1" />
    </linearGradient>
    <linearGradient id="xGradient" x1="0%" y1="0%" x2="100%" y2="100%">
      <stop offset="0%" style="stop-color:#06b6d4;stop-opacity:1" />
      <stop offset="100%" style="stop-color:#1e40af;stop-opacity:1" />
    </linearGradient>
    <linearGradient id="oGradient" x1="0%" y1="0%" x2="100%" y2="100%">
      <stop offset="0%" style="stop-color:#06b6d4;stop-opacity:1" />
      <stop offset="100%" style="stop-color:#1e40af;stop-opacity:1" />
    </linearGradient>
  </defs>
  
  <!-- s -->
  <path d="M8 45c0-8 4-12 10-12 4 0 7 2 8 4l-4 3c-1-1-2-2-4-2-3 0-5 2-5 5 0 3 2 5 5 5 2 0 3-1 4-2l4 3c-1 2-4 4-8 4-6 0-10-4-10-12z" fill="url(#logoGradient)"/>
  
  <!-- p -->
  <path d="M28 15v30h-5V15h5zm0-5v5h-5v-5h5z" fill="url(#logoGradient)"/>
  <path d="M28 15c0-6 4-10 9-10s9 4 9 10v15c0 6-4 10-9 10s-9-4-9-10V15zm5 0v15c0 3 2 5 4 5s4-2 4-5V15c0-3-2-5-4-5s-4 2-4 5z" fill="url(#logoGradient)"/>
  
  <!-- e -->
  <path d="M60 15v30h-5V15h5zm0-5v5h-5v-5h5z" fill="url(#logoGradient)"/>
  <path d="M55 30h15v-5H55v5zm0 5h10v-5h-10v5z" fill="url(#logoGradient)"/>
  <path d="M55 15h15v-5H55v5z" fill="url(#logoGradient)"/>
  
  <!-- x (stylized) -->
  <g transform="translate(85, 15)">
    <!-- Top-left to bottom-right stroke -->
    <path d="M0 0 L25 25" stroke="url(#xGradient)" stroke-width="4" stroke-linecap="round" opacity="0.8"/>
    <!-- Bottom-left to top-right stroke -->
    <path d="M0 25 L25 0" stroke="url(#xGradient)" stroke-width="4" stroke-linecap="round" opacity="0.6"/>
  </g>
  
  <!-- o (stylized with concentric circles) -->
  <g transform="translate(115, 15)">
    <!-- Outer circle -->
    <circle cx="12.5" cy="12.5" r="12.5" fill="url(#oGradient)" opacity="0.3"/>
    <!-- Inner circle -->
    <circle cx="12.5" cy="12.5" r="8" fill="url(#oGradient)"/>
  </g>
  
  <!-- p -->
  <path d="M150 15v30h-5V15h5zm0-5v5h-5v-5h5z" fill="url(#logoGradient)"/>
  <path d="M150 15c0-6 4-10 9-10s9 4 9 10v15c0 6-4 10-9 10s-9-4-9-10V15zm5 0v15c0 3 2 5 4 5s4-2 4-5V15c0-3-2-5-4-5s-4 2-4 5z" fill="url(#logoGradient)"/>
</svg>
